<?xml version="1.0" ?><svg width="960px" height="960px" viewBox="0 0 960 960" style="enable-background:new 0 0 960 960;" version="1.1" xml:space="preserve" xmlns="http://www.w3.org/2000/svg" xmlns:xlink="http://www.w3.org/1999/xlink"><style type="text/css">
	.st0{display:none;}
	.st1{display:inline;opacity:0.93;}
	.st2{display:inline;fill:none;stroke:#000000;stroke-width:15;stroke-linecap:round;stroke-linejoin:round;stroke-miterlimit:10;}
	.st3{display:inline;}
	.st4{fill:none;stroke:#000000;stroke-width:15;stroke-linecap:round;stroke-linejoin:round;stroke-miterlimit:10;}
	.st5{display:inline;fill:none;stroke:#1A1D3F;stroke-width:15;stroke-linecap:round;stroke-linejoin:round;stroke-miterlimit:10;}
	.st6{fill:#DDEDE7;}
	.st7{fill:#1A1D3F;}
	.st8{fill:#E9B44D;}
	.st9{fill:#ED644E;}
	.st10{fill:#494EDF;}
	.st11{fill:#3DC5A1;}
	.st12{fill:#F6CEC1;}
	.st13{fill:none;}
	.st14{fill:none;stroke:#1A1D3F;stroke-width:15;stroke-linecap:round;stroke-linejoin:round;stroke-miterlimit:10;}
	.st15{display:inline;fill:#E9B44D;}
	.st16{fill:#222222;}
	.st17{display:inline;fill:#222222;}
</style><g class="st0" id="guide"/><g class="st0" id="sketch"/><g class="st0" id="stroke"><path class="st2" d="M101.6,735.3c6.6,21.9,24.6,38.5,45.4,48.1c26.6,12.3,58.2,14.6,85.6,3.9c54.9-21.6,75.1-93.5,41.4-141.6   c-32.1-45.9-99.8-44.6-140.6-13.1C103.8,655.3,87.4,688.1,101.6,735.3z"/><path class="st2" d="M169.2,680.3c-10.9,12.1-11.4,32.4-0.6,44.7c10.7,12.3,31.5,14.3,44,3.8c13.7-11.4,17.4-39.1,5.1-53.1   C205.9,662.4,179.6,668.6,169.2,680.3z"/><path class="st2" d="M717.2,519.3c-2.8,3.7-6.6,6.1-10.9,7.6c-5.7,2.1-12.3,2.7-18.4,3.1c-8.1,0.5-16.6,0.9-24.1-1.6   c-1.8-0.6-3.6-1.4-5.2-2.4c-7.8-4.6-11.8-15.1-13.9-27.5c-3.5-20.5-1.6-46.1-2.6-58.9c-0.2-2.3-0.3-4.6-0.4-6.9   c-0.1-6.4,0.6-12.8,4.2-17.9c3.4-4.8,8.5-7.5,14.2-9.2c4.1-1.2,8.4-1.9,12.5-2.5c7.3-1,14.6-2.1,21.9-1.1c1.1,0.2,2.2,0.3,3.3,0.6   c6.1,1.4,11.9,4.5,15.5,9.6c4.5,6.2,5,14.4,5.3,22c1,20.2,2,40.4,2.9,60.6C722.1,503.2,722.3,512.4,717.2,519.3z"/><path class="st2" d="M708.6,548.6c73.1,7.6,129.3,94.7,92.6,170.7c-20.3,41.9-67.6,68.7-114.1,65.7c-48-3.1-92.4-37.8-107.1-83.6   c-14.7-45.8,1.2-99.8,38.4-130.3c13.6-11.1,31.2-17.2,46.1-21"/><path class="st2" d="M273.9,645.6c96.2-92.8,236.3-155,370.7-147.2"/><line class="st2" x1="410.4" x2="410.4" y1="477.5" y2="477.5"/><path class="st2" d="M219.5,611.5c32.9-40.5,74-74,120.5-100.5c0,0,0,0,0,0"/><path class="st2" d="M517.5,446.4c40.4-8.1,82.1-12.7,124.3-13.9"/><line class="st2" x1="474.3" x2="474.3" y1="456.5" y2="456.5"/><path class="st2" d="M716.7,714.3c-5.8,3.4-12.1,7.8-12,16c0.1,8.4,8.3,18,15.8,19c5.2,0.7,9.5-2,13.4-4.6   c7.7-5.2,15.5-10.4,23.2-15.6c4.2-2.8,8.8-6.4,8.8-12.6c-0.1-9.5-11-22.6-18.9-19.9C736.2,700.3,726.5,708.5,716.7,714.3z"/><path class="st2" d="M695.7,666.2c7.9,11.7,23.1,32.4,30.3,42.1"/><path class="st2" d="M714,609.2c15.8,7.1,28.3,22.5,32.5,38.7c5.7,21.9-2.6,46.9-20.3,60.7c-1.6,1.2-3.2,2.4-4.9,3.4   c-20.5,12.5-49,9.5-66.9-6.5c-17.9-15.9-24.4-43.3-16-65.8c3.9-10.5,10.5-20.2,19.5-26.7c2.3-1.6,6.6-3.7,9.7-5.2"/><path class="st2" d="M706.3,526.9c0.8,7.4,1.8,16.7,2.8,27.1c1.7,17.7,3.6,38.3,5,57.6c2.5,35.1,3.4,65.8-0.8,66.5   c-2.1,0.3-5.1,0.8-8.4,1.3c-9.9,1.4-23.2,2.6-27.5-2c-4.2-4.5-7.5-33.6-9.7-66.2v0c-1.3-19-2.3-39.3-3-56.5   c-0.4-10.1-0.7-19.2-0.9-26.3"/><path class="st2" d="M581.7,280.2c38.6-4,112.6-25.7,146.1-45.4"/><path class="st2" d="M587.8,315.4c13.7-2.3,57.4-9.7,70.7-13.9c1.1,22.5,1.5,60.7,1.7,104"/><path class="st2" d="M747.6,266.2L747.6,266.2L747.6,266.2c-8.6,5.9-40.4,22-50.3,25.2c0.2,27,0.4,67.1,0.7,111.1"/><path class="st2" d="M747.6,266.2c-0.4,4.7,7,11.5,11.7,12.2s9.4-1,13.8-2.8c13.7-5.5,65.9-36.5,83-48.8c6.9-5,15.7-25.8-7.6-49.8   c-17-17.5-38.1-10-44.1-6.8c-21,11.3-42.1,22.6-63.1,33.9c-5.7,3-11.6,6.3-14.9,11.9c-3.3,5.5-4.3,15.8,1.4,18.7   c3.9-2.4,14.7-1.8,22.6,8.6C756.1,250.9,750.8,263,747.6,266.2z"/><path class="st2" d="M460.8,347.6c4,2.6,9,3,13.7,3.2c14.7,0.7,75.1-5.7,95.8-9.8c8.4-1.6,25-16.9,13.8-48.4   c-8.1-23-30.5-25-37.3-24.5c-23.8,1.5-47.7,3-71.5,4.6c-6.4,0.4-13.2,0.9-18.5,4.6c-5.3,3.7-18.1,14.2-14.8,39.2   S456.8,345,460.8,347.6z"/><path class="st2" d="M498.9,476c-15.9,14.3-37,21.5-57.8,26.3c-34.2,8-69.5,10.8-104.5,8.4c-37.6-2.5-76.2-11.8-105.1-36   s-45.3-65.8-31.6-100.9c7.3-18.6,21.1-34.6,37.9-45.5s33.7-22.5,53.3-26.4c49.9-9.8,68.8,29.6,75.9,42.8c9.2,17.1,29,25.6,48.1,29   c19.1,3.3,38.8,2.7,57.6,7.3C518.7,392.4,535.8,442.7,498.9,476z"/><path class="st2" d="M284.4,441.3c3.5-11.4,12.5-21.1,21.2-29.2c11.1-10.4,23-21.2,37.8-24.6c11.7-2.7,23.9-0.4,35.7,1.8   c15.6,3,31.3,6,46.9,9c12.3,2.4,24.9,4.8,35.6,11.4s20.1,17.2,19.3,29.7c-0.8,12-9.9,24.1-20.7,29.4c-10.8,5.2-23.1,7.4-35,8.1   c-32.7,1.9-60.6,2.9-93.1-0.9c-9.1-1.1-27.7-3.2-36.3-6.5C285,465.4,281.4,450.9,284.4,441.3z"/></g><g id="outline"><path d="M198.8,660.7c-13.2-0.1-27.3,5.8-35.2,14.6c-13.5,15.1-13.8,39.6-0.7,54.6c7.6,8.6,18.8,13.1,30,13.1   c8.8,0,17.6-2.8,24.4-8.5c8.5-7.1,14.1-19.2,15.1-32.3c0.9-12.3-2.4-23.8-9.2-31.4C217.6,664.3,208.9,660.8,198.8,660.7z    M217.5,701.1c-0.7,9.1-4.4,17.5-9.8,22c-9.3,7.8-25.3,6.4-33.5-3c-8.2-9.4-7.9-25.3,0.6-34.8c5-5.6,15-9.6,23.8-9.6   c0,0,0.1,0,0.1,0c4.1,0,9.7,0.9,13.3,5C216.1,685.4,218.1,692.8,217.5,701.1z M800.8,163.7l-63.1,33.9c-5.6,3-13.3,7.2-17.8,14.7   c-2.9,4.9-4.9,12.9-2.9,19.9c0,0,0,0,0,0c-35.4,18.3-101.7,37.1-136.1,40.6c-0.2,0-0.5,0.1-0.7,0.1c-10.8-10.3-25-12.8-33.8-12.2   l-71.5,4.6c-6.4,0.4-15.1,1-22.3,5.9c-14.2,9.9-20.6,26.3-17.9,46.3c3.5,25.9,15.2,32.6,20.9,35.8c0.4,0.2,0.8,0.5,1.1,0.7   c5.5,3.6,11.6,4.1,17.4,4.4c0.8,0,1.8,0.1,2.9,0.1c19.1,0,74.7-6.1,94.7-10c5.4-1.1,13-5.5,18.3-14.7c1.7-3.1,3.4-6.9,4.4-11.7   c14-2.3,40.7-7,57-10.8c0.9,23.9,1.1,59,1.2,89.1c-5.5,2.4-9.8,5.7-12.8,10c-3.4,4.8-4.8,10.1-5.3,14.9   c-36.8,1.4-73.1,5.3-108.1,11.8c0.2-5.5-0.3-11-1.7-16.5c-5.7-22.6-24.9-40.5-50.3-46.7c-11.3-2.8-22.8-3.7-33.9-4.7   c-8.4-0.7-16.3-1.4-24.2-2.7c-12-2.1-33.6-8.2-42.8-25.2l-0.8-1.6c-4-7.4-11.3-21.2-24.3-31.9c-16.1-13.2-35.9-17.7-58.8-13.2   c-19.8,3.9-36.5,14.8-52.6,25.3l-3.3,2.2c-18.7,12.1-33.2,29.5-40.8,49c-7.2,18.3-7.3,39-0.3,59.7c6.4,19.1,18.5,36.7,34.1,49.7   c22.4,18.7,52.6,30.7,90,35.8c-39,24.7-72.6,54-100.2,87.1c-30.6-4.3-63.3,4.3-87.7,23.1c-16.9,13.1-28.6,28.4-34.7,45.7   c-6.9,19.4-6.8,41.4,0.4,65.2v0c6.7,22.1,24.7,41.3,49.4,52.8c16.5,7.6,34.1,11.5,51.4,11.5c13.8,0,27.4-2.5,40-7.4   c27.8-10.9,48.9-34.4,58-64.5c8.7-28.7,5.1-58.6-9.7-83c47-44.3,103.7-80.7,164.2-105.5c63.3-26,129.1-38.2,190.7-35.6   c3.1,13.3,8.4,22.1,16.2,26.8c0.6,0.3,1.1,0.7,1.7,1c0.1,3.5,0.2,7.2,0.4,11.1c-18.2,5.2-32.4,12-43.1,20.9   c-39.7,32.6-56.5,89.5-40.8,138.4c15.7,48.9,62.5,85.4,113.8,88.8c2.6,0.2,5.2,0.3,7.7,0.3c47.3,0,93.2-28,113.6-70.2   c17.8-36.9,16.3-79.2-4.3-116.2c-19.4-34.9-52.1-58.6-88.1-64.4c-0.4-3.7-0.8-7.2-1.1-10.5c3.6-2,6.6-4.6,8.9-7.7c0,0,0,0,0,0   c6.9-9.3,6.3-21.4,5.9-29.4c-1-20.2-1.9-40.4-2.9-60.6c-0.4-7.5-0.9-17.8-6.7-26c-3.3-4.7-8.3-8.4-14.2-10.7   c-0.1-22.8-0.3-44.4-0.4-63.5l-0.2-37c10.6-4.4,28.4-13.3,39.5-19.6c3.8,4.7,9.4,8.1,13.9,8.8c1.1,0.2,2.2,0.2,3.3,0.2   c5.2,0,9.9-1.7,14.4-3.5c14.5-5.8,67.1-37.1,84.6-49.7c4.5-3.2,9.6-10.4,10.5-21c0.8-9.4-1.5-23.9-17.1-40   C835.4,152.8,811.8,157.7,800.8,163.7z M577,326.2c-3.1,5.4-7,7.2-8.2,7.5c-21.1,4.2-80.9,10.3-94,9.7c-3.9-0.2-7.7-0.5-10-2v0   c-0.6-0.4-1.2-0.8-1.9-1.1c-4.1-2.3-10.9-6.2-13.4-24.8c-1.9-14.5,2-25.3,11.6-32c3.4-2.4,8.5-2.9,14.7-3.3l71.5-4.6   c0.1,0,0.5,0,1.1,0c4.6,0,22.1,1.2,28.6,19.6C582.6,310.9,580.1,320.8,577,326.2z M236.3,469c-24.6-20.5-42.6-58.9-29.4-92.4   c6.5-16.6,18.9-31.5,35-41.9l3.4-2.2c15.6-10.2,30.4-19.8,47.3-23.1c5-1,9.6-1.4,13.8-1.4c32.5,0,46.1,25.6,53.1,38.8l0.9,1.6   c9,16.7,28,28.4,53.4,32.8c8.5,1.5,17.2,2.2,25.5,2.9c11,0.9,21.4,1.8,31.6,4.3c20.2,5,34.9,18.3,39.3,35.8   c4.1,16.3-1.8,33.2-16.3,46.3c-15.7,14.2-37.4,20.6-54.5,24.6c-33.5,7.8-67.9,10.6-102.3,8.3C293.9,500.4,260,488.8,236.3,469z    M278.9,725.4c-7.7,25.6-25.7,45.6-49.1,54.9c-24.3,9.5-54,8.1-79.7-3.7c-20.8-9.6-35.9-25.5-41.3-43.5   c-6.2-20.7-6.4-39.5-0.6-55.8c5.1-14.5,15.2-27.5,29.8-38.8c21.2-16.4,50.9-24.1,77.5-20c15.5,2.4,37.2,9.8,52.4,31.5   C282.9,671.4,286.9,699,278.9,725.4z M442.1,527.3c-61.6,25.2-119.2,62.2-167.3,107.1c-11-12.9-25.1-22.1-41.8-27.3   c29.7-34.2,66.2-64,108.8-88.5c6.2,0.3,12.5,0.5,18.7,0.5c27.6,0,55.2-3.2,82.1-9.4c18.9-4.4,42.9-11.6,61.1-28.1   c9.4-8.5,16-18.3,19.5-28.7c35.9-6.9,73.3-11.2,111.2-12.6c0.3,4.1,0.3,9.8,0.3,16.3c0,10.2,0,22.4,1.2,33.9   C573.2,488.3,506.4,501,442.1,527.3z M790.5,613.7c18.2,32.6,19.6,69.9,3.9,102.4c-9.1,18.9-24.8,35.4-44.2,46.5   c-19.3,11.1-41.5,16.4-62.6,15c-21.7-1.4-43.7-10-61.9-24.2c-18.2-14.2-31.9-33.4-38.5-54.2c-6.7-20.7-6.7-44.3-0.2-66.5   s19.4-41.9,36.2-55.8c8.5-7,19.7-12.6,34.2-17c0.5,11.8,1.2,27.3,2.3,43.4c-2.4,1.2-4.6,2.5-6.3,3.6c-9.8,7.1-17.4,17.5-22.1,30.2   c-9.5,25.7-2,56.1,18.1,74c12,10.6,27.7,16.1,43.3,16.1c1.6,0,3.2-0.1,4.8-0.2c-0.1,1-0.2,2.1-0.2,3.3c0.1,12,11,24.8,22.3,26.3   c0.9,0.1,1.8,0.2,2.7,0.2c6.9,0,12.2-3.6,15.9-6l23.2-15.6c3.9-2.6,12.2-8.2,12.1-18.9c0-8.4-5.7-18.5-13.4-23.9   c-3.2-2.3-6.6-3.5-9.8-3.8c5.7-13.4,7.2-28.6,3.5-42.7c-4.4-17.2-17-33-32.6-41.6c-1.3-17.3-2.8-34.2-4.1-46.9   C746.7,563.7,774.3,584.6,790.5,613.7z M722.4,623.4c8,6.9,14.2,16.3,16.8,26.3c4.3,16.6-0.6,35.2-12,47.7   c-2.8-3.8-6.1-8.3-9.5-13.1c5.6-3.3,6.1-13,6.1-26.6C723.7,648.9,723.3,637.4,722.4,623.4z M719.1,721.6c2.1-0.9,4.1-2,6-3.2   c2-1.2,3.8-2.5,5.7-3.9c0.8-0.6,1.5-1.2,2.3-1.9c5.3-3.6,10.8-7,16.3-8.9c0.7,0.1,2.9,1.2,5.3,4.2c2.6,3.3,3.8,6.7,3.8,8.7   c0,2-1.3,3.6-5.4,6.4l-23.2,15.6c-3.3,2.2-5.8,3.8-8.2,3.4c-3.7-0.5-9.3-6.7-9.3-11.6C712.2,727.1,714,724.8,719.1,721.6z    M715.2,706.4c-0.8,0.5-1.5,1-2.3,1.4c-0.2,0.1-0.5,0.3-0.8,0.5c-17,7.4-38.7,4.2-52.8-8.4c-15.4-13.7-21.3-37.9-14-57.6   c3.4-9.1,8.8-16.9,15.5-22.2c4.2,55,8.7,59.8,11.1,62.4c3.5,3.8,9.2,5.6,18.2,5.6c3.3,0,7-0.2,11.3-0.7   C706.2,694.1,711.2,701,715.2,706.4z M689.4,670.4c0.6,0.9,1.2,1.8,1.9,2.7c-5.4,0.1-7.5-0.5-8.3-0.9c-1.1-2.4-4.5-13.4-7.8-61.6   c0,0,0-0.1,0-0.1c-1.5-21.3-2.5-42.3-3-56.3c-0.1-1.6-0.1-3.1-0.2-4.6c0,0,0-0.1,0-0.1c-0.2-4.2-0.3-8.3-0.4-12.2   c2.4,0.2,4.7,0.3,7,0.3c3.6,0,6.9-0.2,9.9-0.4c3.7-0.2,7.6-0.6,11.4-1.2c0.4,4,0.9,8.4,1.3,12.9c0,0.2,0,0.3,0,0.4   c0.2,1.7,0.3,3.4,0.5,5.1c1.4,14.4,3.4,36.1,4.9,57.4c2.8,39.3,2.2,53.7,1.5,59c-2.4-3.3-4.5-6.5-6.3-9.1c-2.3-3.4-7-4.3-10.4-2   C688,662.3,687.1,667,689.4,670.4z M707.3,416.4c3.1,4.3,3.6,10.4,4,18c1,20.2,2,40.4,2.9,60.6c0.4,7.8,0.4,15.1-3,19.8   c-1.6,2.2-4.1,3.9-7.4,5.1c-4.8,1.7-10.7,2.3-16.3,2.6c-8.1,0.5-15.3,0.8-21.3-1.3c-1.3-0.4-2.6-1-3.8-1.7   c-4.8-2.8-8.3-10.6-10.3-22.4c-2.2-12.8-2.2-28.2-2.2-40.6c0-7,0-13-0.4-17.7c-0.1-1.9-0.3-4.2-0.3-6.5c-0.1-6.3,0.7-10.4,2.8-13.4   c2-2.8,5.2-4.8,10.3-6.3c3.7-1.1,7.8-1.8,11.4-2.3c4.9-0.7,10-1.4,14.8-1.4c1.7,0,3.4,0.1,5.1,0.3c1,0.1,1.8,0.3,2.6,0.5   C701.2,411,705.1,413.3,707.3,416.4z M742.6,260.6c-9,5.8-38.7,20.8-47.6,23.7c-3.1,1-5.2,3.9-5.2,7.2l0.3,42.2   c0.1,18.3,0.2,38.8,0.4,60.5c-6.4-0.2-12.7,0.7-18.7,1.5c-1.3,0.2-2.6,0.4-4,0.6c-0.1-33.6-0.5-72.4-1.6-95   c-0.1-2.3-1.3-4.5-3.2-5.8c-1.9-1.3-4.3-1.7-6.5-1c-9.3,2.9-37.1,8.1-61.2,12.2c-0.5-4.9-1.7-10.4-3.9-16.5   c-0.4-1.2-0.9-2.3-1.4-3.4c40.1-5.6,108.4-25.9,141.8-45.5c0,0,0,0,0,0c1.1-0.4,7.4-0.6,12.8,6.6   C746.9,251.1,744.2,258.2,742.6,260.6z M856,210.5c-0.5,6.2-3.4,9.5-4.3,10.2c-17.5,12.6-69.2,43.1-81.4,47.9   c-3.7,1.5-7.2,2.7-9.8,2.3c-1.2-0.3-3.3-2-4.6-3.4c4.3-7.3,7.2-19.8,0.5-28.7c-7.4-9.8-17.5-13.2-25.1-12.6c0-1.8,0.5-4.4,1.6-6.3   c2.1-3.6,6.5-6.1,12-9.1l63.1-33.9c0.8-0.4,19.8-10.4,35.2,5.4C854.8,194.3,856.5,204.3,856,210.5z M425.6,484.2   c15-0.9,27.4-3.7,37.9-8.8c13.8-6.7,24-21.3,25-35.6c0.9-13.7-7.4-27.1-22.9-36.5c-12-7.4-25.8-10-38.1-12.4l-46.9-9   c-11.9-2.3-25.4-4.9-38.8-1.8c-17.2,4-30.5,16.4-41.2,26.5c-9.2,8.6-19.2,19.3-23.3,32.5c0,0,0,0,0,0c-4.1,13.3,1.4,31.9,15.8,37.4   c8.4,3.2,24,5.3,38.1,6.9c16.4,1.9,31.7,2.6,46.8,2.6C393.8,485.9,409.3,485.1,425.6,484.2z M298.4,462.4   c-5.1-1.9-9.3-10.8-6.8-18.9c3-9.9,11.4-18.6,19.2-25.9c9.9-9.3,21.1-19.7,34.4-22.8c10.4-2.4,21.7-0.2,32.6,1.9l46.9,9   c11.5,2.2,23.4,4.5,33,10.4c3.9,2.4,16.5,11.1,15.8,22.8c-0.3,4.4-2.2,9-5,13.1c-0.1,0.2-0.2,0.3-0.4,0.5c-2.9,4-6.8,7.4-11.1,9.5   c-8.6,4.2-19.2,6.6-32.2,7.3c-31,1.8-59.4,2.9-91.9-0.8C325.6,467.6,306.2,465.3,298.4,462.4z"/></g><g class="st0" id="flat"><g class="st3"><g><g><g><g><g><g><g><g><path class="st8" d="M641.7,432.6c-42.1,1.2-83.9,5.8-124.3,13.9L340,511c0,0,0,0,0,0c-46.5,26.6-87.5,60-120.5,100.5            l54.4,34.1c96.2-92.8,236.3-155,370.7-147.2L641.7,432.6z"/></g></g></g></g></g></g></g></g><g><g><g><g><g><g><g><g><path class="st8" d="M727.8,234.8c-33.5,19.7-113.9,43.4-152.5,47.4l12.5,33.3c13.7-2.3,57.4-9.7,70.7-13.9            c1.1,22.5,1.5,60.7,1.7,104l37.7-3c-0.3-44.1-0.5-84.1-0.7-111.1c9.9-3.2,41.7-19.3,50.3-25.2v0h0c0,0,36-23.3,20.2-38            S727.8,234.8,727.8,234.8z"/></g></g></g></g></g></g></g></g><g><g><g><g><g><g><g><g><path class="st9" d="M747.6,266.2c-0.4,4.7,7,11.5,11.7,12.2s9.4-1,13.8-2.8c13.7-5.5,65.9-36.5,83-48.8            c6.9-5,15.7-25.8-7.6-49.8c-17-17.5-38.1-10-44.1-6.8c-21,11.3-42.1,22.6-63.1,33.9c-5.7,3-11.6,6.3-14.9,11.9            c-3.3,5.5-4.3,15.8,1.4,18.7c3.9-2.4,14.7-1.8,22.6,8.6C756.1,250.9,750.8,263,747.6,266.2z"/></g></g></g></g></g></g></g></g><g><g><g><g><g><g><g><g><path class="st9" d="M460.8,347.6c4,2.6,9,3,13.7,3.2c14.7,0.7,75.1-5.7,95.8-9.8c8.4-1.6,25-16.9,13.8-48.4            c-8.1-23-30.5-25-37.3-24.5c-23.8,1.5-47.7,3-71.5,4.6c-6.4,0.4-13.2,0.9-18.5,4.6c-5.3,3.7-18.1,14.2-14.8,39.2            S456.8,345,460.8,347.6z"/></g></g></g></g></g></g></g></g><g><g><g><g><g><g><g><g><path class="st7" d="M708.6,548.6l-44.1,1.5c-14.9,3.8-32.5,9.8-46.1,21c-37.2,30.5-53.1,84.5-38.4,130.3            c14.7,45.8,59.1,80.5,107.1,83.6c46.5,3,93.8-23.8,114.1-65.7C838,643.3,781.7,556.2,708.6,548.6z"/></g></g></g></g></g></g></g></g><g><g><g><g><g><g><g><g><path class="st6" d="M746.5,647.8c-4.2-16.2-16.8-31.6-32.5-38.7l-46.5-1.3c-3,1.4-7.4,3.5-9.7,5.2            c-9,6.5-15.6,16.2-19.5,26.7c-8.3,22.5-1.9,49.9,16,65.8c17.9,15.9,46.4,18.9,66.9,6.4c1.7-1,3.4-2.2,4.9-3.4            C743.9,694.7,752.1,669.7,746.5,647.8z"/></g></g></g></g></g></g></g></g><g><g><g><g><g><g><g><g><path class="st7" d="M101.6,735.3c6.6,21.9,24.6,38.5,45.4,48.1c26.6,12.3,58.2,14.6,85.6,3.9            c54.9-21.6,75.1-93.5,41.4-141.6c-32.1-45.9-99.8-44.6-140.6-13.1C103.8,655.3,87.4,688.1,101.6,735.3z"/></g></g></g></g></g></g></g></g><g><g><g><g><g><g><g><g><path class="st6" d="M169.2,680.3c-10.9,12.1-11.4,32.4-0.6,44.7c10.7,12.3,31.5,14.3,44,3.8            c13.7-11.4,17.4-39.1,5.1-53.1C205.9,662.4,179.6,668.6,169.2,680.3z"/></g></g></g></g></g></g></g></g><g><g><g><g><g><g><g><g><path class="st8" d="M717.2,519.3c-2.8,3.7-6.6,6.1-10.9,7.6c-5.7,2.1-12.3,2.7-18.4,3.1c-8.1,0.5-16.6,0.9-24.1-1.6            c-1.8-0.6-3.6-1.4-5.2-2.4c-7.8-4.6-11.8-15.1-13.9-27.5c-3.5-20.5-1.6-46.1-2.6-58.9c-0.2-2.3-0.3-4.6-0.4-6.9            c-0.1-6.4,0.6-12.8,4.2-17.9c3.4-4.8,8.5-7.5,14.2-9.2c4.1-1.2,8.4-1.9,12.5-2.5c7.3-1,14.6-2.1,21.9-1.1            c1.1,0.2,2.2,0.3,3.3,0.6c6.1,1.4,11.9,4.5,15.5,9.6c4.5,6.2,5,14.4,5.3,22c1,20.2,2,40.4,2.9,60.6            C722.1,503.2,722.3,512.4,717.2,519.3z"/></g></g></g></g></g></g></g></g><g><g><g><g><g><g><g><g><path class="st9" d="M716.7,714.3c-5.8,3.4-12.1,7.8-12,16c0.1,8.4,8.3,18,15.8,19c5.2,0.7,9.5-2,13.4-4.6            c7.7-5.2,15.5-10.4,23.2-15.6c4.2-2.8,8.8-6.4,8.8-12.6c-0.1-9.5-11-22.6-18.9-19.9C736.2,700.3,726.5,708.5,716.7,714.3z            "/></g></g></g></g></g></g></g></g><g><g><g><g><g><g><g><g><path class="st8" d="M714.1,611.6c-1.4-19.3-3.2-40-5-57.6c-1-10.3-2-19.6-2.8-27.1l-42.6,1.4c0.2,7.2,0.5,16.2,0.9,26.3            c0.7,17.2,1.7,37.4,3,56.5v0c2.3,32.6,5.5,61.7,9.7,66.2c4.2,4.6,17.5,3.4,27.5,2c3.4-0.5,6.3-1,8.4-1.3            C717.5,677.4,716.6,646.7,714.1,611.6z"/></g></g></g></g></g></g></g></g><g><g><g><g><g><g><g><g><path class="st9" d="M472.7,381.1c-18.8-4.6-38.5-4-57.6-7.3s-38.9-11.9-48.1-29c-7.1-13.2-26-52.6-75.9-42.8            c-19.6,3.9-36.5,15.5-53.3,26.4c-16.8,10.9-30.6,26.8-37.9,45.5c-13.7,35.1,2.7,76.7,31.6,100.9            c28.9,24.1,67.5,33.4,105.1,36c35,2.4,70.3-0.5,104.5-8.4c20.9-4.9,41.9-12,57.8-26.3            C535.8,442.7,518.7,392.4,472.7,381.1z"/></g></g></g></g></g></g></g></g><g><g><g><g><g><g><g><g><path class="st6" d="M461.6,409.7c-10.7-6.6-23.3-9-35.6-11.4c-15.6-3-31.3-6-46.9-9c-11.8-2.3-24-4.5-35.7-1.8            c-14.8,3.4-26.7,14.2-37.8,24.6c-8.7,8.1-17.7,17.8-21.2,29.2c-3,9.6,0.7,24.1,11.3,28.1c8.6,3.2,27.2,5.4,36.3,6.5            c32.6,3.8,60.4,2.7,93.1,0.9c12-0.7,24.2-2.8,35-8.1c10.8-5.2,20-17.4,20.7-29.4C481.8,426.8,472.3,416.2,461.6,409.7z"/></g></g></g></g></g></g></g></g><g><g><g><g><g><g><g><g><path class="st7" d="M726,715.9c-2.3,0-4.6-1.1-6-3.1c-6.7-9.1-22.3-30.3-30.5-42.4c-2.3-3.4-1.4-8.1,2-10.4            c3.4-2.3,8.1-1.4,10.4,2c8,11.9,24.1,33.7,30.1,41.9c2.5,3.3,1.7,8-1.6,10.5C729.1,715.4,727.5,715.9,726,715.9z"/></g></g></g></g></g></g></g></g><g><g><g><g><g><g><g><g><path class="st7" d="M678.5,537.9c-5.5,0-11.5-0.5-17.2-2.4c-3.9-1.3-6-5.6-4.7-9.5c1.3-3.9,5.6-6,9.5-4.7            c5.9,2,13.1,1.8,21.2,1.3c5.7-0.4,11.6-0.9,16.3-2.6c3.9-1.4,8.2,0.6,9.6,4.5s-0.6,8.2-4.5,9.6            c-6.5,2.4-13.7,3.1-20.5,3.5C685.4,537.7,682.1,537.9,678.5,537.9z"/></g></g></g></g></g></g></g></g><g><g><g><g><g><g><g><g><path class="st7" d="M660.2,413c-3.2,0-6.2-2.1-7.2-5.3c-1.2-4,1.1-8.1,5-9.3c4.5-1.4,9.2-2.1,13.6-2.8            c7.7-1.1,15.6-2.2,24-1.1c1.5,0.2,2.8,0.4,4.1,0.7c4,1,6.5,5,5.6,9c-1,4-5,6.5-9,5.6c-0.7-0.2-1.6-0.3-2.6-0.5            c-6.2-0.8-13.2,0.2-19.8,1.1c-3.6,0.5-7.7,1.1-11.4,2.3C661.6,412.9,660.9,413,660.2,413z"/></g></g></g></g></g></g></g></g><g><g><g><g><g><g><g><g><path class="st7" d="M644.7,505.9c-3.6,0-6.8-2.6-7.4-6.3c-2.4-14-2.4-30.1-2.4-43.1c0-6.7,0-12.4-0.3-16.5            c-0.2-2.2-0.3-4.7-0.4-7.4c-0.1-4.1,3.2-7.6,7.4-7.6c4.2-0.1,7.6,3.2,7.6,7.4c0,2.3,0.2,4.5,0.3,6.5            c0.4,4.7,0.4,10.7,0.4,17.7c0,12.4,0,27.8,2.2,40.6c0.7,4.1-2.1,8-6.1,8.6C645.5,505.9,645.1,505.9,644.7,505.9z"/></g></g></g></g></g></g></g></g><g><g><g><g><g><g><g><g><path class="st7" d="M199.9,381.4c-0.9,0-1.8-0.2-2.7-0.5c-3.9-1.5-5.8-5.9-4.2-9.7c7.6-19.5,22.1-36.9,40.8-49l3.3-2.2            c16.1-10.5,32.8-21.4,52.6-25.3c22.9-4.5,42.7-0.1,58.8,13.2c12.9,10.6,20.3,24.4,24.3,31.9l0.8,1.6            c9.2,17,30.7,23,42.8,25.2c4.1,0.7,6.8,4.6,6.1,8.7c-0.7,4.1-4.6,6.8-8.7,6.1c-25.4-4.4-44.4-16.1-53.4-32.8l-0.9-1.6            c-7.9-14.8-24.4-45.7-66.9-37.3c-16.9,3.3-31.7,13-47.3,23.1l-3.4,2.2c-16.1,10.4-28.5,25.3-35,41.9            C205.7,379.6,202.9,381.4,199.9,381.4z"/></g></g></g></g></g></g></g></g><g><g><g><g><g><g><g><g><path class="st7" d="M360.6,519.1c-8.2,0-16.4-0.3-24.6-0.8c-4.1-0.3-7.3-3.9-7-8c0.3-4.1,3.9-7.3,8-7            c34.3,2.3,68.8-0.4,102.3-8.3c17.1-4,38.8-10.4,54.5-24.6c8.3-7.5,14-16.5,16.3-25.8c1-4,5.1-6.5,9.1-5.5            c4,1,6.5,5.1,5.5,9.1c-3.1,12.3-10.3,23.8-20.8,33.3c-18.3,16.5-42.3,23.7-61.1,28.1C415.8,515.9,388.2,519.1,360.6,519.1            z"/></g></g></g></g></g></g></g></g></g></g><g class="st0" id="colored_x5F_line"><g class="st3"><path class="st8" d="M747.6,266.2c-0.4,4.7,7,11.5,11.7,12.2s9.4-1,13.8-2.8c13.7-5.5,65.9-36.5,83-48.8c6.9-5,15.7-25.8-7.6-49.8    c-17-17.5-38.1-10-44.1-6.8c-21,11.3-42.1,22.6-63.1,33.9c-5.7,3-11.6,6.3-14.9,11.9c-3.3,5.5-4.3,15.8,1.4,18.7    c3.9-2.4,14.7-1.8,22.6,8.6C756.1,250.9,750.8,263,747.6,266.2z"/></g><g class="st3"><path class="st8" d="M460.8,347.6c4,2.6,9,3,13.7,3.2c14.7,0.7,75.1-5.7,95.8-9.8c8.4-1.6,25-16.9,13.8-48.4    c-8.1-23-30.5-25-37.3-24.5c-23.8,1.5-47.7,3-71.5,4.6c-6.4,0.4-13.2,0.9-18.5,4.6c-5.3,3.7-18.1,14.2-14.8,39.2    S456.8,345,460.8,347.6z"/></g><g class="st3"><path class="st8" d="M717.2,519.3c-2.8,3.7-6.6,6.1-10.9,7.6c-5.7,2.1-12.3,2.7-18.4,3.1c-8.1,0.5-16.6,0.9-24.1-1.6    c-1.8-0.6-3.6-1.4-5.2-2.4c-7.8-4.6-11.8-15.1-13.9-27.5c-3.5-20.5-1.6-46.1-2.6-58.9c-0.2-2.3-0.3-4.6-0.4-6.9    c-0.1-6.4,0.6-12.8,4.2-17.9c3.4-4.8,8.5-7.5,14.2-9.2c4.1-1.2,8.4-1.9,12.5-2.5c7.3-1,14.6-2.1,21.9-1.1c1.1,0.2,2.2,0.3,3.3,0.6    c6.1,1.4,11.9,4.5,15.5,9.6c4.5,6.2,5,14.4,5.3,22c1,20.2,2,40.4,2.9,60.6C722.1,503.2,722.3,512.4,717.2,519.3z"/></g><g class="st3"><path class="st16" d="M410.4,485L410.4,485c-4.2,0-7.5-3.4-7.5-7.5s3.4-7.5,7.5-7.5s7.5,3.4,7.5,7.5S414.5,485,410.4,485z"/></g><path class="st17" d="M645.1,490.9c-65.4-3.8-135.6,8.8-203,36.4c-63.9,26.2-123.6,65-172.8,112.3c-11.6-13.7-26.6-22.3-43-26.6   c31.1-35.9,73.3-70.3,117.4-95.5c0.1,0,0.1-0.1,0.2-0.1c5.7-3.5,20.2-12.3,21.6-13.2c2.2-1.3,3.7-3.7,3.7-6.5   c0-4.1-3.4-7.5-7.5-7.5c-2.1,0-2.3,0.1-7.3,3.2l-18.2,11.1c-48.3,27.6-94.5,66-127.1,105.6c-26.7-2.1-54.8,6.1-75.7,22.3   c-29.5,22.8-46,55.6-31.7,102.8c6.6,21.9,24.6,38.5,45.4,48.1c26.6,12.3,58.2,14.6,85.6,3.9c52.5-20.6,73.3-87.4,45.5-135.3   c0.4-0.3,0.8-0.6,1.2-0.9c47.9-46.2,106.2-84.2,168.6-109.8c65.3-26.8,133.2-39,196.4-35.3c4.1,0.2,7.7-2.9,7.9-7.1   C652.4,494.7,649.2,491.2,645.1,490.9z M212.5,728.8c-12.5,10.5-33.2,8.5-44-3.8c-10.7-12.3-10.2-32.6,0.6-44.7   c10.4-11.6,36.7-17.9,48.4-4.6C230,689.7,226.2,717.4,212.5,728.8z"/><g class="st3"><path class="st16" d="M510,456.8c-3.5,0-6.6-2.5-7.3-6c-0.8-4.1,1.8-8,5.9-8.8c28.5-5.7,83.8-15.5,132.9-16.9    c4.2-0.1,7.6,3.1,7.7,7.3c0.1,4.1-3.1,7.6-7.3,7.7c-48.1,1.4-102.3,11-130.4,16.6C511,456.7,510.5,456.8,510,456.8z"/></g><g class="st3"><path class="st16" d="M474.3,464L474.3,464c-4.2,0-7.5-3.4-7.5-7.5s3.4-7.5,7.5-7.5s7.5,3.4,7.5,7.5S478.5,464,474.3,464z"/></g><g class="st3"><path class="st16" d="M581.7,287.7c-3.8,0-7.1-2.9-7.5-6.7c-0.4-4.1,2.6-7.8,6.7-8.2c36.8-3.8,110.1-25,143.1-44.4    c3.6-2.1,8.2-0.9,10.3,2.7c2.1,3.6,0.9,8.2-2.7,10.3c-35.5,20.9-110.6,42.5-149.2,46.4C582.2,287.7,581.9,287.7,581.7,287.7z"/></g><g class="st3"><path class="st16" d="M660.2,413c-4.1,0-7.5-3.3-7.5-7.5c-0.1-31.3-0.4-69.1-1.3-94.4c-18.7,4.3-51.3,9.8-62.4,11.7    c-4.1,0.7-7.9-2.1-8.6-6.2c-0.7-4.1,2.1-7.9,6.2-8.6c25.6-4.2,59.2-10.3,69.7-13.6c2.2-0.7,4.6-0.3,6.5,1c1.9,1.3,3.1,3.5,3.2,5.8    c1.2,24.8,1.5,68.8,1.7,104.3C667.7,409.7,664.3,413,660.2,413C660.2,413,660.2,413,660.2,413z"/></g><g class="st3"><path class="st16" d="M697.9,410c-4.1,0-7.5-3.3-7.5-7.5c-0.1-24.8-0.3-48.3-0.4-69l-0.3-42.2c0-3.3,2.1-6.2,5.2-7.2    c9.1-2.9,39.9-18.5,48.2-24.1c1.2-0.9,2.8-1.4,4.4-1.4c4.1,0,7.5,3.4,7.5,7.5c0,1.9-0.7,3.6-1.8,4.9c-0.4,0.5-0.9,0.9-1.5,1.3    c-8,5.4-33.4,18.5-47,24.1l0.2,37c0.1,20.6,0.3,44.2,0.4,69C705.4,406.6,702.1,410,697.9,410C697.9,410,697.9,410,697.9,410z"/></g><g class="st3"><g><path class="st8" d="M472.7,381.1c-18.8-4.6-38.5-4-57.6-7.3s-38.9-11.9-48.1-29c-7.1-13.2-26-52.6-75.9-42.8     c-19.6,3.9-36.5,15.5-53.3,26.4c-16.8,10.9-30.6,26.8-37.9,45.5c-13.7,35.1,2.7,76.7,31.6,100.9c28.9,24.1,67.5,33.4,105.1,36     c35,2.4,70.3-0.5,104.5-8.4c20.9-4.9,41.9-12,57.8-26.3C535.8,442.7,518.7,392.4,472.7,381.1z M480.9,439.3     c-0.8,12-9.9,24.1-20.7,29.4c-10.8,5.2-23.1,7.4-35,8.1c-32.7,1.9-60.6,2.9-93.1-0.9c-9.1-1.1-27.7-3.2-36.3-6.5     c-10.7-4-14.3-18.5-11.3-28.1c3.5-11.4,12.5-21.1,21.2-29.2c11.1-10.4,23-21.2,37.8-24.6c11.7-2.7,23.9-0.4,35.7,1.8     c15.6,3,31.3,6,46.9,9c12.3,2.4,24.9,4.8,35.6,11.4C472.3,416.2,481.8,426.8,480.9,439.3z"/></g><g><path class="st16" d="M378,485.9c-15.1,0-30.4-0.7-46.8-2.6c-14.1-1.6-29.7-3.7-38.1-6.9c-14.4-5.4-19.9-24.1-15.8-37.4     c0,0,0,0,0,0c4.1-13.2,14.1-23.8,23.3-32.5c10.7-10,24-22.5,41.2-26.5c13.4-3.1,26.9-0.5,38.8,1.8l46.9,9     c12.2,2.3,26.1,5,38.1,12.4c15.4,9.5,23.8,22.8,22.9,36.5c-0.9,14.3-11.2,29-25,35.6c-10.4,5.1-22.8,7.9-37.9,8.8     C409.3,485.1,393.8,485.9,378,485.9z M291.6,443.5L291.6,443.5c-2.5,8.1,1.7,17,6.8,18.9c7.8,2.9,27.2,5.2,34.5,6     c32.5,3.8,60.8,2.6,91.9,0.8c13-0.7,23.6-3.1,32.2-7.3c8.8-4.3,15.9-14.2,16.5-23.1c0.8-11.7-11.9-20.4-15.8-22.8     c-9.6-5.9-21.5-8.2-33-10.4l-46.9-9c-10.9-2.1-22.3-4.3-32.6-1.9c-13.3,3.1-24.5,13.5-34.4,22.8     C303,424.8,294.6,433.6,291.6,443.5z"/></g></g><path class="st17" d="M716.3,549.7c-0.9-8.7-1.7-16.8-2.5-23.6c-0.5-4.1-4.1-7.1-8.3-6.6c-4.1,0.5-7.1,4.2-6.6,8.3   c0.9,7.7,1.8,17,2.8,27c1.4,14.4,3.4,36.1,4.9,57.4c2.8,39.3,2.2,53.7,1.5,59c-2.4-3.3-4.5-6.5-6.3-9.1c-2.3-3.4-7-4.3-10.4-2   c-3.4,2.3-4.3,7-2,10.4c0.6,0.9,1.2,1.8,1.9,2.7c-5.4,0.1-7.5-0.5-8.3-0.9c-1.1-2.4-4.5-13.4-7.8-61.6c0,0,0-0.1,0-0.1   c-1.5-21.3-2.5-42.3-3-56.3c-0.4-9.6-0.7-18.7-0.9-26.2c-0.1-4.1-3.5-7.4-7.7-7.3c-4.1,0.1-7.4,3.5-7.3,7.7   c0.2,6.9,0.4,15,0.8,23.6c-13.1,3.8-27.3,9.6-38.7,18.9c-37.2,30.5-53.1,84.5-38.4,130.3c14.7,45.8,59.1,80.5,107.1,83.6   c46.5,3,93.8-23.8,114.1-65.7C836.7,646,785.5,562.4,716.3,549.7z M654.4,705.5c-17.9-15.9-24.4-43.3-16-65.8   c3.9-10.5,10.4-20.2,19.5-26.7c0.7-0.5,1.5-1,2.4-1.5c0,0,0,0.1,0,0.1c0,0,0,0.1,0,0.1c4.4,63,9.1,68.1,11.7,70.8   c3.5,3.8,9.2,5.6,18.2,5.6c3.3,0,7-0.2,11.3-0.7c7,9.8,14.4,19.8,18.5,25.4C699.5,724.3,671.9,721.1,654.4,705.5z M731.7,703.6   c-3.1-4.2-8.4-11.5-14.1-19.2c5.6-3.3,6.1-13,6.1-26.6c0-10.8-0.7-25.7-2-44.2c12,8,21.2,20.9,24.7,34.3   C751.5,667.3,745.5,689.2,731.7,703.6z"/><g class="st3"><path class="st8" d="M716.7,714.3c-5.8,3.4-12.1,7.8-12,16c0.1,8.4,8.3,18,15.8,19c5.2,0.7,9.5-2,13.4-4.6    c7.7-5.2,15.5-10.4,23.2-15.6c4.2-2.8,8.8-6.4,8.8-12.6c-0.1-9.5-11-22.6-18.9-19.9C736.2,700.3,726.5,708.5,716.7,714.3z"/></g></g></svg>